<svg id="Layer_1" xmlns="http://www.w3.org/2000/svg" viewBox="0 0 48 48"><path d="M47,3.4c0,.27-.1,.51-.29,.7L24.22,26.6l-2.82-2.83L43.88,1.27c.17-.17,.43-.27,.7-.27,.28,0,.54,.1,.71,.27l1.42,1.42c.19,.19,.29,.43,.29,.71Z" id="id_101" style="fill: rgb(255, 255, 255);"></path><path d="M19.57,36.91l-8.49-8.49c-.33-.33-.57-.72-.71-1.14L1.93,32.61c-.51,.32-.85,.86-.92,1.46-.07,.61,.14,1.21,.58,1.64l2.721,2.723,5.943-5.103c.419-.361,1.05-.312,1.41,.107,.36,.419,.312,1.051-.107,1.411l-5.827,5.004,2.276,2.278,3.833-4.383c.364-.415,.995-.457,1.411-.094,.416,.363,.458,.996,.094,1.412l-3.921,4.483,2.859,2.861c.38,.38,.89,.59,1.41,.59,.08,0,.15,0,.23-.01,.61-.07,1.14-.41,1.47-.92l5.33-8.45c-.43-.14-.82-.38-1.15-.71Z" id="id_102" style="fill: rgb(255, 255, 255);"></path><path d="M21.689,35.792c-.256,0-.512-.098-.707-.293l-8.485-8.489c-.391-.391-.391-1.024,0-1.415l.414-.415c1.949-1.95,5.122-1.95,7.071,0l2.828,2.829c1.949,1.95,1.949,5.124,0,7.074l-.414,.415c-.195,.195-.451,.293-.707,.293Z" id="id_103" style="fill: rgb(255, 255, 255);"></path><path d="M20,13c-.366,0-.702-.2-.877-.52l-.499-.912c-.276-.504-.688-.917-1.192-1.192l-.912-.499c-.32-.175-.52-.512-.52-.877s.2-.702,.52-.877l.912-.499c.504-.276,.917-.688,1.192-1.192l.499-.912c.351-.641,1.404-.641,1.755,0l.499,.912c.276,.504,.688,.917,1.192,1.192l.912,.499c.32,.175,.52,.512,.52,.877s-.2,.702-.52,.877l-.912,.499c-.504,.276-.917,.688-1.192,1.192l-.499,.912c-.175,.32-.512,.52-.877,.52Z" id="id_104" style="fill: rgb(255, 255, 255);"></path><path d="M32,41c-.366,0-.702-.2-.877-.52l-.499-.912c-.276-.504-.688-.917-1.192-1.192l-.912-.499c-.32-.175-.52-.512-.52-.877s.2-.702,.52-.877l.912-.499c.504-.276,.917-.688,1.192-1.192l.499-.912c.351-.641,1.404-.641,1.755,0l.499,.912c.276,.504,.688,.917,1.192,1.192l.912,.499c.32,.175,.52,.512,.52,.877s-.2,.702-.52,.877l-.912,.499c-.504,.276-.917,.688-1.192,1.192l-.499,.912c-.175,.32-.512,.52-.877,.52Z" id="id_105" style="fill: rgb(255, 255, 255);"></path><path d="M11,19h-1v-1c0-.552-.448-1-1-1s-1,.448-1,1v1h-1c-.552,0-1,.448-1,1s.448,1,1,1h1v1c0,.552,.448,1,1,1s1-.448,1-1v-1h1c.552,0,1-.448,1-1s-.448-1-1-1Z" id="id_106" style="fill: rgb(255, 255, 255);"></path><path d="M42,25h-1v-1c0-.552-.448-1-1-1s-1,.448-1,1v1h-1c-.552,0-1,.448-1,1s.448,1,1,1h1v1c0,.552,.448,1,1,1s1-.448,1-1v-1h1c.552,0,1-.448,1-1s-.448-1-1-1Z" id="id_107" style="fill: rgb(255, 255, 255);"></path></svg>