<svg xmlns="http://www.w3.org/2000/svg" version="1.1" xmlns:xlink="http://www.w3.org/1999/xlink" xmlns:svgjs="http://svgjs.com/svgjs" width="1920" height="1080" preserveAspectRatio="none" viewBox="0 0 1920 1080"><g mask="url(&quot;#SvgjsMask1051&quot;)" fill="none"><rect width="1920" height="1080" x="0" y="0" fill="#1e3266"></rect><path d="M2080 1080L0 1080 L0 608.73Q79.18 527.91, 160 607.09Q279.04 566.13, 320 685.18Q406.93 612.11, 480 699.04Q530.35 589.39, 640 639.74Q762.27 602.01, 800 724.28Q826.09 590.37, 960 616.45Q1058.89 555.35, 1120 654.24Q1131.69 569.93, 1216 581.62Q1288.28 493.89, 1376 566.17Q1463.18 557.35, 1472 644.53Q1501.09 577.62, 1568 606.71Q1606.23 548.94, 1664 587.18Q1734.7 497.88, 1824 568.57Q1890.1 538.67, 1920 604.77Q1987.48 512.25, 2080 579.73z" fill="rgba(24, 47, 93, 1)"></path><path d="M1984 1080L0 1080 L0 858.73Q-26.53 736.2, 96 709.68Q158.83 612.51, 256 675.34Q327.38 650.73, 352 722.11Q413.74 623.85, 512 685.58Q618.69 632.27, 672 738.95Q746.86 717.81, 768 792.66Q806.28 670.94, 928 709.22Q1019.76 640.99, 1088 732.75Q1181.89 730.64, 1184 824.54Q1249.64 794.18, 1280 859.83Q1288.54 708.37, 1440 716.9Q1501.04 617.94, 1600 678.98Q1673.03 656.01, 1696 729.04Q1800.38 737.41, 1792 841.79Q1790.35 744.13, 1888 742.48Q1911.23 669.71, 1984 692.94z" fill="rgba(37, 70, 125, 1)"></path><path d="M1952 1080L0 1080 L0 894.32Q62.99 861.32, 96 924.31Q108.78 841.09, 192 853.86Q218.79 784.65, 288 811.45Q341.19 768.64, 384 821.84Q546.66 824.5, 544 987.16Q526.88 874.03, 640 856.91Q675.7 796.61, 736 832.3Q834.88 771.18, 896 870.07Q1010.06 824.13, 1056 938.2Q1081.22 803.42, 1216 828.64Q1304.58 757.22, 1376 845.8Q1464.91 838.71, 1472 927.63Q1528.33 823.96, 1632 880.29Q1752.02 840.31, 1792 960.32Q1866.78 875.11, 1952 949.89z" fill="rgba(53, 108, 177, 1)"></path><path d="M1952 1080L0 1080 L0 1132.5Q-25.61 1010.89, 96 985.29Q134.07 927.36, 192 965.42Q257.08 934.5, 288 999.57Q400.96 1016.53, 384 1129.48Q376.59 962.07, 544 954.66Q631.15 945.81, 640 1032.95Q694.9 927.86, 800 982.76Q929.59 952.35, 960 1081.93Q1047.45 1009.38, 1120 1096.84Q1123.42 1004.26, 1216 1007.69Q1286.69 918.38, 1376 989.08Q1480.22 933.31, 1536 1037.53Q1653.44 994.97, 1696 1112.41Q1731.67 1052.08, 1792 1087.75Q1834.92 970.67, 1952 1013.6z" fill="rgba(255, 255, 255, 1)"></path></g><defs><mask id="SvgjsMask1051"><rect width="1920" height="1080" fill="#ffffff"></rect></mask></defs></svg>