<svg version="1.1" xmlns="http://www.w3.org/2000/svg" xmlns:xlink="http://www.w3.org/1999/xlink" x="0px" y="0px" viewBox="0 0 512 512" style="enable-background:new 0 0 512 512;" xml:space="preserve">
<g id="F394_x2C__Arrow_x2C__end_x2C__finish">
<path style="fill: rgb(255, 255, 255);" d="M486,266H26c-5.523,0-10-4.478-10-10c0-5.523,4.477-10,10-10h460c5.522,0,10,4.477,10,10
		C496,261.522,491.522,266,486,266z" id="id_101"></path>
<path style="fill: rgb(255, 255, 255);" d="M346.005,386c-2.818,0-5.619-1.185-7.598-3.492c-3.594-4.193-3.108-10.506,1.085-14.101l140-120
		c4.192-3.595,10.505-3.108,14.101,1.085c3.594,4.193,3.108,10.506-1.085,14.101l-140,120C350.622,385.209,348.308,386,346.005,386z
		" id="id_102"></path>
<path style="fill: rgb(255, 255, 255);" d="M485.995,266c-2.303,0-4.617-0.791-6.503-2.407l-140-120c-4.193-3.594-4.679-9.907-1.085-14.101
		c3.593-4.193,9.906-4.68,14.101-1.085l140,120c4.193,3.594,4.679,9.907,1.085,14.101C491.615,264.815,488.813,266,485.995,266z" id="id_103"></path>
<path style="fill: rgb(255, 255, 255);" d="M486,496c-5.523,0-10-4.478-10-10V26c0-5.523,4.477-10,10-10c5.522,0,10,4.477,10,10v460
		C496,491.522,491.522,496,486,496z" id="id_104"></path>
</g>
<g id="Layer_1">
</g>
</svg>