<svg enable-background="new 0 0 32 32" id="flecha" version="1.1" viewBox="0 0 32 32" xml:space="preserve" xmlns="http://www.w3.org/2000/svg" xmlns:xlink="http://www.w3.org/1999/xlink"><g id="Arrow_Drop_Right_Square"><path d="M30,0H2C0.895,0,0,0.895,0,2v28c0,1.105,0.895,2,2,2h28c1.104,0,2-0.895,2-2V2C32,0.895,31.104,0,30,0z    M30,30H2V2h28V30z" fill="#121313" id="id_101"></path><path clip-rule="evenodd" d="M10.995,5C10.431,5,9.985,5.489,10,6.044   v19.943c-0.024,0.887,1.07,1.38,1.702,0.742l9.9-9.999c0.39-0.394,0.376-1.031,0-1.429L11.71,5.31C11.529,5.121,11.277,5,10.995,5z    M19.48,16.016l-7.491,7.566V8.45L19.48,16.016z" fill="#121313" fill-rule="evenodd" id="Arrow_Drop_Down_2_"></path></g><g></g><g></g><g></g><g></g><g></g><g></g></svg>