<svg xmlns="http://www.w3.org/2000/svg" version="1.1" xmlns:xlink="http://www.w3.org/1999/xlink" xmlns:svgjs="http://svgjs.com/svgjs" width="1440" height="560" preserveAspectRatio="none" viewBox="0 0 1440 560"><g mask="url(&quot;#SvgjsMask1420&quot;)" fill="none"><rect width="1440" height="560" x="0" y="0" fill="url(#SvgjsLinearGradient1421)"></rect><path d="M833.29 354.09L868.35 354.09L868.35 368.21L833.29 368.21z" fill="#037b0b"></path><path d="M1116.59 291.32L1138.64 291.32L1138.64 320.14L1116.59 320.14z" stroke="#d3b714"></path><path d="M186.39 455.66L221.28 455.66L221.28 490.55L186.39 490.55z" stroke="#d3b714"></path><path d="M199.17 532.06a27.99 27.99 0 1 0-20.41 52.13z" stroke="#d3b714"></path><path d="M734.93 296.94L776.77 296.94L776.77 338.78L734.93 338.78z" fill="#037b0b"></path><path d="M876.59 481.95L914.43 481.95L914.43 519.79L876.59 519.79z" stroke="#e73635"></path><path d="M860.02 549.27L898.6 549.27L898.6 595.89L860.02 595.89z" stroke="#037b0b"></path><path d="M1359.99 222.29L1381.55 222.29L1381.55 243.85L1359.99 243.85z" stroke="#e73635"></path><path d="M84.31 128.58L138.84 128.58L138.84 183.11L84.31 183.11z" fill="#d3b714"></path><path d="M196.43 84.97L217.07 84.97L217.07 139.39L196.43 139.39z" fill="#037b0b"></path><path d="M1031.22 558.62L1049.68 558.62L1049.68 577.08L1031.22 577.08z" fill="#e73635"></path><path d="M1010.99 126.76 a28.21 28.21 0 1 0 56.42 0 a28.21 28.21 0 1 0 -56.42 0z" fill="#e73635"></path><path d="M1431.06 241.54a45.28 45.28 0 1 0-54.89 72.03z" fill="#037b0b"></path><path d="M889.3 51.05L901.52 51.05L901.52 94.65L889.3 94.65z" stroke="#037b0b"></path><path d="M158.56 386.58 a19.06 19.06 0 1 0 38.12 0 a19.06 19.06 0 1 0 -38.12 0z" fill="#037b0b"></path><path d="M443.48 44.28L494.03 44.28L494.03 91.15L443.48 91.15z" stroke="#d3b714"></path><path d="M1347.05 85.59a8.86 8.86 0 1 0 14.72-9.86z" fill="#e73635"></path><path d="M458.39 465.21a40.77 40.77 0 1 0 55.72 59.54z" stroke="#e73635"></path><path d="M352.83 423L398.82 423L398.82 467.19L352.83 467.19z" fill="#d3b714"></path><path d="M247.47 401.79L254.57 401.79L254.57 409.99L247.47 409.99z" stroke="#d3b714"></path><path d="M1075.52 35.79L1093.19 35.79L1093.19 77.53L1075.52 77.53z" fill="#e73635"></path><path d="M666.98 557.48L708.04 557.48L708.04 606.07L666.98 606.07z" fill="#e73635"></path><path d="M538.45 517.21L569.16 517.21L569.16 531.79L538.45 531.79z" stroke="#037b0b"></path><path d="M581.09 519.43L636.85 519.43L636.85 546.99L581.09 546.99z" fill="#037b0b"></path><path d="M746.07 95 a25.05 25.05 0 1 0 50.1 0 a25.05 25.05 0 1 0 -50.1 0z" fill="#d3b714"></path><path d="M1328.29 441.02L1332.28 441.02L1332.28 446.75L1328.29 446.75z" fill="#e73635"></path><path d="M345.43 500.28L396.38 500.28L396.38 551.23L345.43 551.23z" stroke="#d3b714"></path><path d="M217.03 4.29L242.06 4.29L242.06 24.77L217.03 24.77z" fill="#037b0b"></path><path d="M111.43 374.35L139.11 374.35L139.11 402.03L111.43 402.03z" fill="#037b0b"></path><path d="M926.86 321.78L927.4 321.78L927.4 322.32L926.86 322.32z" stroke="#e73635"></path><path d="M956.57 39.4 a23.86 23.86 0 1 0 47.72 0 a23.86 23.86 0 1 0 -47.72 0z" stroke="#037b0b"></path><path d="M657.67 106.11a54.46 54.46 0 1 0-36.38-102.66z" fill="#037b0b"></path><path d="M225.98 350.5L228.93 350.5L228.93 353.45L225.98 353.45z" stroke="#e73635"></path></g><defs><mask id="SvgjsMask1420"><rect width="1440" height="560" fill="#ffffff"></rect></mask><linearGradient x1="15.28%" y1="-39.29%" x2="84.72%" y2="139.29%" gradientUnits="userSpaceOnUse" id="SvgjsLinearGradient1421"><stop stop-color="#0e2a47" offset="0"></stop><stop stop-color="rgba(158, 30, 142, 1)" offset="1"></stop></linearGradient></defs></svg>