<svg id="visual" viewBox="0 0 960 540" width="960" height="540" xmlns="http://www.w3.org/2000/svg" xmlns:xlink="http://www.w3.org/1999/xlink" version="1.1">
<path d="M0 39L14.5 39.8C29 40.7 58 42.3 87.2 50.3C116.3 58.3 145.7 72.7 174.8 79.8C204 87 233 87 262 87C291 87 320 87 349 80.8C378 74.7 407 62.3 436.2 56.2C465.3 50 494.7 50 523.8 51.7C553 53.3 582 56.7 611 60.2C640 63.7 669 67.3 698 71C727 74.7 756 78.3 785.2 73.8C814.3 69.3 843.7 56.7 872.8 48.5C902 40.3 931 36.7 945.5 34.8L960 33L960 0L945.5 0C931 0 902 0 872.8 0C843.7 0 814.3 0 785.2 0C756 0 727 0 698 0C669 0 640 0 611 0C582 0 553 0 523.8 0C494.7 0 465.3 0 436.2 0C407 0 378 0 349 0C320 0 291 0 262 0C233 0 204 0 174.8 0C145.7 0 116.3 0 87.2 0C58 0 29 0 14.5 0L0 0Z" fill="#004cbb"></path><path d="M0 141L14.5 169C29 197 58 253 87.2 273.8C116.3 294.7 145.7 280.3 174.8 267.7C204 255 233 244 262 240.3C291 236.7 320 240.3 349 228.7C378 217 407 190 436.2 181.8C465.3 173.7 494.7 184.3 523.8 189.7C553 195 582 195 611 206.8C640 218.7 669 242.3 698 239.7C727 237 756 208 785.2 195.3C814.3 182.7 843.7 186.3 872.8 204.3C902 222.3 931 254.7 945.5 270.8L960 287L960 31L945.5 32.8C931 34.7 902 38.3 872.8 46.5C843.7 54.7 814.3 67.3 785.2 71.8C756 76.3 727 72.7 698 69C669 65.3 640 61.7 611 58.2C582 54.7 553 51.3 523.8 49.7C494.7 48 465.3 48 436.2 54.2C407 60.3 378 72.7 349 78.8C320 85 291 85 262 85C233 85 204 85 174.8 77.8C145.7 70.7 116.3 56.3 87.2 48.3C58 40.3 29 38.7 14.5 37.8L0 37Z" fill="#0059dd"></path><path d="M0 390L14.5 396.3C29 402.7 58 415.3 87.2 413.5C116.3 411.7 145.7 395.3 174.8 396.2C204 397 233 415 262 413.2C291 411.3 320 389.7 349 374.3C378 359 407 350 436.2 342.8C465.3 335.7 494.7 330.3 523.8 331.3C553 332.3 582 339.7 611 342.3C640 345 669 343 698 341.2C727 339.3 756 337.7 785.2 334.2C814.3 330.7 843.7 325.3 872.8 330.7C902 336 931 352 945.5 360L960 368L960 285L945.5 268.8C931 252.7 902 220.3 872.8 202.3C843.7 184.3 814.3 180.7 785.2 193.3C756 206 727 235 698 237.7C669 240.3 640 216.7 611 204.8C582 193 553 193 523.8 187.7C494.7 182.3 465.3 171.7 436.2 179.8C407 188 378 215 349 226.7C320 238.3 291 234.7 262 238.3C233 242 204 253 174.8 265.7C145.7 278.3 116.3 292.7 87.2 271.8C58 251 29 195 14.5 167L0 139Z" fill="#0066ff"></path><path d="M0 471L14.5 473.7C29 476.3 58 481.7 87.2 487C116.3 492.3 145.7 497.7 174.8 496.8C204 496 233 489 262 482.7C291 476.3 320 470.7 349 471.5C378 472.3 407 479.7 436.2 475.2C465.3 470.7 494.7 454.3 523.8 450.7C553 447 582 456 611 460.5C640 465 669 465 698 463.3C727 461.7 756 458.3 785.2 455.7C814.3 453 843.7 451 872.8 454.5C902 458 931 467 945.5 471.5L960 476L960 366L945.5 358C931 350 902 334 872.8 328.7C843.7 323.3 814.3 328.7 785.2 332.2C756 335.7 727 337.3 698 339.2C669 341 640 343 611 340.3C582 337.7 553 330.3 523.8 329.3C494.7 328.3 465.3 333.7 436.2 340.8C407 348 378 357 349 372.3C320 387.7 291 409.3 262 411.2C233 413 204 395 174.8 394.2C145.7 393.3 116.3 409.7 87.2 411.5C58 413.3 29 400.7 14.5 394.3L0 388Z" fill="#3c80ff"></path><path d="M0 541L14.5 541C29 541 58 541 87.2 541C116.3 541 145.7 541 174.8 541C204 541 233 541 262 541C291 541 320 541 349 541C378 541 407 541 436.2 541C465.3 541 494.7 541 523.8 541C553 541 582 541 611 541C640 541 669 541 698 541C727 541 756 541 785.2 541C814.3 541 843.7 541 872.8 541C902 541 931 541 945.5 541L960 541L960 474L945.5 469.5C931 465 902 456 872.8 452.5C843.7 449 814.3 451 785.2 453.7C756 456.3 727 459.7 698 461.3C669 463 640 463 611 458.5C582 454 553 445 523.8 448.7C494.7 452.3 465.3 468.7 436.2 473.2C407 477.7 378 470.3 349 469.5C320 468.7 291 474.3 262 480.7C233 487 204 494 174.8 494.8C145.7 495.7 116.3 490.3 87.2 485C58 479.7 29 474.3 14.5 471.7L0 469Z" fill="#6198ff">
</path>
</svg>